<svg width="23" height="14" viewBox="0 0 23 14" fill="none" xmlns="http://www.w3.org/2000/svg">
<path d="M22.6762 6.20082L16.8972 0.328774C16.4643 -0.111041 15.7642 -0.109405 15.3333 0.332612C14.9025 0.774572 14.9041 1.48942 15.337 1.92929L19.2163 5.87097L1.10579 5.87097C0.495062 5.87097 -1.71425e-06 6.37644 -1.82328e-06 7C-1.93231e-06 7.62357 0.495061 8.12903 1.10579 8.12903L19.2163 8.12904L15.3371 12.0707C14.9042 12.5106 14.9025 13.2254 15.3334 13.6674C15.7642 14.1095 16.4644 14.111 16.8972 13.6712L22.6752 7.80026C23.1083 7.35892 23.1079 6.64069 22.6762 6.20082Z" fill="#3E3A71"/>
</svg>
