<svg width="20" height="19" viewBox="0 0 20 19" fill="none" xmlns="http://www.w3.org/2000/svg">
<path d="M11.7728 9.625C11.7728 10.5351 11.035 11.2729 10.1249 11.2729C9.21479 11.2729 8.47693 10.5351 8.47693 9.625C8.47693 8.71491 9.21479 7.97705 10.1249 7.97705C11.035 7.97705 11.7728 8.71491 11.7728 9.625Z" fill="white"/>
<path d="M12.9082 4.64453H7.3418C6.13015 4.64453 5.14453 5.63015 5.14453 6.8418V12.4082C5.14453 13.6198 6.13015 14.6055 7.3418 14.6055H12.9082C14.1198 14.6055 15.1055 13.6198 15.1055 12.4082V6.8418C15.1055 5.63015 14.1198 4.64453 12.9082 4.64453ZM10.125 12.3716C8.61052 12.3716 7.37842 11.1395 7.37842 9.625C7.37842 8.11052 8.61052 6.87842 10.125 6.87842C11.6395 6.87842 12.8716 8.11052 12.8716 9.625C12.8716 11.1395 11.6395 12.3716 10.125 12.3716ZM13.2744 7.0249C12.971 7.0249 12.7251 6.779 12.7251 6.47559C12.7251 6.17217 12.971 5.92627 13.2744 5.92627C13.5778 5.92627 13.8237 6.17217 13.8237 6.47559C13.8237 6.779 13.5778 7.0249 13.2744 7.0249Z" fill="white"/>
<path d="M14.5562 0.25H5.69385C2.96786 0.25 0.75 2.46786 0.75 5.19385V14.0562C0.75 16.7821 2.96786 19 5.69385 19H14.5562C17.2821 19 19.5 16.7821 19.5 14.0562V5.19385C19.5 2.46786 17.2821 0.25 14.5562 0.25ZM16.2041 12.4082C16.2041 14.2255 14.7255 15.7041 12.9082 15.7041H7.3418C5.52447 15.7041 4.0459 14.2255 4.0459 12.4082V6.8418C4.0459 5.02447 5.52447 3.5459 7.3418 3.5459H12.9082C14.7255 3.5459 16.2041 5.02447 16.2041 6.8418V12.4082Z" fill="white"/>
</svg>
