<svg width="40" height="40" viewBox="0 0 40 40" fill="none" xmlns="http://www.w3.org/2000/svg">
<path d="M36.5882 28.0445C36.0208 27.7329 35.3084 27.9401 34.9969 28.5073C34.6852 29.0746 34.8924 29.7871 35.4597 30.0986C36.8556 30.8655 37.6562 31.7157 37.6562 32.4311C37.6562 33.3062 36.4164 34.6625 32.9365 35.8447C29.4986 37.0129 24.9043 37.6561 20 37.6561C15.0957 37.6561 10.5014 37.0129 7.06352 35.8447C3.58359 34.6625 2.34375 33.3062 2.34375 32.4311C2.34375 31.7157 3.14438 30.8655 4.54031 30.0986C5.10758 29.787 5.31477 29.0745 5.00313 28.5072C4.69148 27.94 3.97922 27.7328 3.4118 28.0444C1.85539 28.8995 0 30.3547 0 32.4311C0 34.0229 1.09469 36.2922 6.30953 38.064C9.98391 39.3123 14.8459 39.9998 20 39.9998C25.1541 39.9998 30.0161 39.3123 33.6905 38.064C38.9053 36.2922 40 34.0229 40 32.4311C40 30.3547 38.1446 28.8995 36.5882 28.0445Z" fill="white"/>
<path d="M11.1525 34.1509C13.5314 34.823 16.6735 35.1931 20 35.1931C23.3264 35.1931 26.4685 34.823 28.8475 34.1509C31.7578 33.3288 33.2335 32.1387 33.2335 30.6138C33.2335 29.0889 31.7578 27.8989 28.8475 27.0768C28.2014 26.8943 27.4987 26.7342 26.7517 26.5977C26.346 27.2986 25.9209 28.0201 25.4764 28.7623C26.3033 28.8864 27.0796 29.0385 27.7846 29.2181C29.9265 29.7637 30.709 30.3778 30.8699 30.6139C30.7089 30.8501 29.9266 31.4642 27.7847 32.0097C25.7574 32.526 23.1492 32.8205 20.4021 32.8469C20.269 32.8567 20.135 32.8623 20 32.8623C19.8649 32.8623 19.7309 32.8567 19.5978 32.8469C16.8507 32.8205 14.2424 32.5261 12.2151 32.0097C10.0732 31.4642 9.29081 30.85 9.12995 30.6139C9.29081 30.3778 10.0733 29.7637 12.2152 29.2181C12.9202 29.0386 13.6965 28.8864 14.5235 28.7623C14.079 28.0202 13.6539 27.2985 13.2482 26.5977C12.5012 26.7343 11.7985 26.8943 11.1525 27.0768C8.24206 27.8989 6.76636 29.089 6.76636 30.6138C6.76636 32.1387 8.24206 33.3287 11.1525 34.1509Z" fill="white"/>
<path d="M20 30.5183C21.0432 30.5183 21.9907 29.9867 22.535 29.0963C26.3482 22.8575 30.8937 14.6352 30.8937 10.8937C30.8937 4.88687 26.0068 0 20 0C13.9931 0 9.1062 4.88687 9.1062 10.8937C9.1062 14.6352 13.6517 22.8575 17.465 29.0963C18.0092 29.9867 18.9568 30.5183 20 30.5183ZM15.6213 10.1457C15.6213 7.73141 17.5856 5.76719 20 5.76719C22.4143 5.76719 24.3786 7.73141 24.3786 10.1457C24.3786 12.5601 22.4143 14.5243 20 14.5243C17.5856 14.5243 15.6213 12.5602 15.6213 10.1457Z" fill="white"/>
</svg>
