<svg width="31" height="31" viewBox="0 0 31 31" fill="none" xmlns="http://www.w3.org/2000/svg">
<path d="M30.0028 22.32C29.9491 22.2735 23.7605 17.8312 22.0782 18.136C21.2712 18.2797 20.8103 18.8294 19.8865 19.9289C19.7377 20.1066 19.3802 20.5323 19.1022 20.8351C18.5177 20.6445 17.9476 20.4124 17.3962 20.1407C14.5499 18.755 12.2502 16.4553 10.8645 13.609C10.5926 13.0576 10.3605 12.4875 10.1701 11.903C10.4739 11.624 10.8996 11.2664 11.0815 11.1135C12.1768 10.1938 12.7276 9.73297 12.8702 8.9249C13.1626 7.2509 8.73167 1.0571 8.68517 1.0013C8.48402 0.714298 8.22161 0.475581 7.91691 0.302412C7.61222 0.129243 7.27284 0.0259489 6.92333 0C5.1274 0 0 6.65157 0 7.7717C0 7.8368 0.0940334 14.4543 8.25427 22.755C16.5468 30.906 23.1632 31 23.2283 31C24.3484 31 31 25.8726 31 24.0767C30.9742 23.7283 30.8714 23.39 30.6989 23.0862C30.5265 22.7824 30.2887 22.5207 30.0028 22.32Z" fill="white"/>
<path d="M16.5333 8.26686C18.1772 8.2685 19.7532 8.92224 20.9156 10.0846C22.078 11.247 22.7317 12.823 22.7333 14.4669C22.7333 14.7409 22.8422 15.0038 23.036 15.1975C23.2298 15.3913 23.4926 15.5002 23.7667 15.5002C24.0407 15.5002 24.3036 15.3913 24.4973 15.1975C24.6911 15.0038 24.8 14.7409 24.8 14.4669C24.7975 12.2752 23.9258 10.1739 22.376 8.62416C20.8263 7.0744 18.725 6.20266 16.5333 6.2002C16.2593 6.2002 15.9964 6.30906 15.8027 6.50285C15.6089 6.69664 15.5 6.95947 15.5 7.23353C15.5 7.50759 15.6089 7.77042 15.8027 7.96421C15.9964 8.15799 16.2593 8.26686 16.5333 8.26686Z" fill="white"/>
<path d="M16.5333 3.09987C19.5469 3.10343 22.436 4.30212 24.5669 6.43302C26.6977 8.56391 27.8964 11.453 27.9 14.4665C27.9 14.7406 28.0089 15.0034 28.2027 15.1972C28.3964 15.391 28.6593 15.4999 28.9333 15.4999C29.2074 15.4999 29.4702 15.391 29.664 15.1972C29.8578 15.0034 29.9667 14.7406 29.9667 14.4665C29.9626 10.9051 28.546 7.49062 26.0276 4.97227C23.5093 2.45392 20.0948 1.03731 16.5333 1.0332C16.2593 1.0332 15.9964 1.14207 15.8027 1.33586C15.6089 1.52965 15.5 1.79248 15.5 2.06654C15.5 2.34059 15.6089 2.60343 15.8027 2.79721C15.9964 2.991 16.2593 3.09987 16.5333 3.09987Z" fill="white"/>
</svg>
