<svg width="28" height="28" viewBox="0 0 28 28" fill="none" xmlns="http://www.w3.org/2000/svg">
<path d="M14 28C21.73 28 28 21.73 28 14C28 6.26998 21.73 0 14 0C6.26998 0 0 6.26998 0 14C0 21.73 6.26998 28 14 28ZM13 6.00001C13 5.44999 13.45 4.99998 14 4.99998C14.55 4.99998 15 5.44999 15 6.00001V13.52L19.625 17.22C20.0551 17.565 20.125 18.195 19.78 18.625C19.585 18.87 19.295 19 19 19C18.78 19 18.56 18.93 18.375 18.78L13.375 14.78C13.14 14.59 13.0001 14.305 13.0001 14V6.00001H13Z" fill="white"/>
</svg>
