<svg width="25" height="20" viewBox="0 0 25 20" fill="none" xmlns="http://www.w3.org/2000/svg">
<path d="M24.9627 2.36559C24.041 2.76498 23.0887 3.04147 22.0748 3.16436C23.1194 2.54992 23.9182 1.56682 24.2868 0.368664C23.3037 0.952381 22.2284 1.35177 21.0917 1.59754C20.1701 0.61444 18.849 0 17.4051 0C14.6094 0 12.3667 2.27343 12.3667 5.0384C12.3667 5.43779 12.3974 5.80645 12.4896 6.17512C8.3114 5.99078 4.62476 3.96313 2.13628 0.921659C0.35441 4.11674 2.35134 6.75883 3.67238 7.64977C2.87361 7.64977 2.07484 7.404 1.39896 7.03533C1.39896 9.52381 3.15011 11.5822 5.42353 12.043C4.93198 12.1966 3.82599 12.2888 3.15011 12.1352C3.79527 14.1321 5.66931 15.6068 7.85057 15.6375C6.13014 16.9892 3.61094 18.0645 0.385132 17.7266C2.62784 19.1705 5.26992 20 8.12707 20C17.4051 20 22.4435 12.3195 22.4435 5.68356C22.4435 5.46851 22.4435 5.25346 22.4128 5.0384C23.4573 4.27035 24.3175 3.37942 24.9627 2.36559Z" fill="white"/>
</svg>
