<svg width="31" height="20" viewBox="0 0 31 20" fill="none" xmlns="http://www.w3.org/2000/svg">
<path d="M28.2401 0H2.2862C1.02353 0 0 1.02353 0 2.2862V6.0745H30.5263V2.2862C30.5263 1.02353 29.5028 0 28.2401 0Z" fill="#82AFFF"/>
<path d="M0 17.7136C0 18.9762 1.02353 19.9998 2.2862 19.9998H28.2401C29.5027 19.9998 30.5263 18.9763 30.5263 17.7136V13.9253H0V17.7136Z" fill="#73AF00"/>
<path d="M30.5263 6.90576H0V13.0939H30.5263V6.90576Z" fill="#F5F5F5"/>
<path d="M0 6.66693V6.90601H30.5263V6.66693V6.07471H0V6.66693Z" fill="#FF4B55"/>
<path d="M0 13.3338V13.926H30.5263V13.3338V13.0947H0V13.3338Z" fill="#FF4B55"/>
<path d="M12.0607 4.99616C10.9832 4.99616 10.1098 4.12485 10.1098 3.05124C10.1098 1.97369 10.9831 1.09845 12.0607 1.09845C12.0648 1.09845 12.0689 1.09845 12.073 1.09851C12.1364 1.09934 12.1586 1.0151 12.1027 0.985106C11.7709 0.807254 11.3923 0.706613 10.9897 0.709535C9.70042 0.718716 8.65317 1.78708 8.66688 3.07634C8.68036 4.3523 9.7235 5.38513 11.0066 5.38513C11.4036 5.38513 11.7769 5.28467 12.1046 5.10926C12.1604 5.07939 12.1378 4.99514 12.0746 4.99604C12.0699 4.99616 12.0653 4.99616 12.0607 4.99616Z" fill="#F5F5F5"/>
<path d="M13.5884 4.45846L13.5012 4.71972L13.2259 4.72181C13.1902 4.72205 13.1754 4.7676 13.2041 4.78876L13.4256 4.95237L13.3425 5.21494C13.3318 5.24892 13.3705 5.27707 13.3995 5.25632L13.6236 5.09617L13.8477 5.25632C13.8767 5.27707 13.9153 5.24892 13.9046 5.21494L13.8215 4.95237L14.043 4.78876C14.0717 4.7676 14.0569 4.72205 14.0213 4.72181L13.7459 4.71972L13.6588 4.45846C13.6475 4.42465 13.5997 4.42465 13.5884 4.45846Z" fill="#F5F5F5"/>
<path d="M15.5285 4.45846L15.4414 4.71972L15.166 4.72181C15.1304 4.72205 15.1156 4.7676 15.1443 4.78876L15.3658 4.95237L15.2827 5.21494C15.2719 5.24892 15.3106 5.27707 15.3397 5.25632L15.5637 5.09617L15.7878 5.25632C15.8168 5.27707 15.8554 5.24892 15.8448 5.21494L15.7617 4.95237L15.9832 4.78876C16.0118 4.7676 15.997 4.72205 15.9614 4.72181L15.686 4.71972L15.5989 4.45846C15.5876 4.42465 15.5398 4.42465 15.5285 4.45846Z" fill="#F5F5F5"/>
<path d="M17.469 4.45846L17.3819 4.71972L17.1065 4.72181C17.0708 4.72205 17.056 4.7676 17.0847 4.78876L17.3063 4.95237L17.2232 5.21494C17.2124 5.24892 17.2511 5.27707 17.2802 5.25632L17.5042 5.09617L17.7283 5.25632C17.7573 5.27707 17.7959 5.24892 17.7853 5.21494L17.7022 4.95237L17.9236 4.78876C17.9523 4.7676 17.9375 4.72205 17.9019 4.72181L17.6265 4.71972L17.5394 4.45846C17.5281 4.42465 17.4802 4.42465 17.469 4.45846Z" fill="#F5F5F5"/>
<path d="M19.4092 4.45846L19.3221 4.71972L19.0467 4.72181C19.011 4.72205 18.9962 4.7676 19.0249 4.78876L19.2464 4.95237L19.1633 5.21494C19.1525 5.24892 19.1912 5.27707 19.2203 5.25632L19.4443 5.09617L19.6684 5.25632C19.6974 5.27707 19.7361 5.24892 19.7254 5.21494L19.6423 4.95237L19.8638 4.78876C19.8925 4.7676 19.8777 4.72205 19.842 4.72181L19.5666 4.71972L19.4795 4.45846C19.4683 4.42465 19.4204 4.42465 19.4092 4.45846Z" fill="#F5F5F5"/>
<path d="M21.3493 4.45846L21.2622 4.71972L20.9868 4.72181C20.9512 4.72205 20.9364 4.7676 20.9651 4.78876L21.1866 4.95237L21.1035 5.21494C21.0928 5.24892 21.1315 5.27707 21.1605 5.25632L21.3846 5.09617L21.6086 5.25632C21.6377 5.27707 21.6763 5.24892 21.6656 5.21494L21.5825 4.95237L21.8041 4.78876C21.8328 4.7676 21.818 4.72205 21.7823 4.72181L21.5069 4.71972L21.4198 4.45846C21.4084 4.42465 21.3606 4.42465 21.3493 4.45846Z" fill="#F5F5F5"/>
<path d="M15.5285 2.64751L15.4414 2.90878L15.166 2.91086C15.1304 2.9111 15.1156 2.95665 15.1443 2.97782L15.3658 3.14142L15.2827 3.40399C15.2719 3.43798 15.3106 3.46612 15.3397 3.44537L15.5637 3.28523L15.7878 3.44537C15.8168 3.46612 15.8554 3.43798 15.8448 3.40399L15.7617 3.14142L15.9832 2.97782C16.0118 2.95665 15.997 2.9111 15.9614 2.91086L15.686 2.90878L15.5989 2.64751C15.5876 2.61359 15.5398 2.61359 15.5285 2.64751Z" fill="#F5F5F5"/>
<path d="M17.469 2.64751L17.3819 2.90878L17.1065 2.91086C17.0708 2.9111 17.056 2.95665 17.0847 2.97782L17.3063 3.14142L17.2232 3.40399C17.2124 3.43798 17.2511 3.46612 17.2802 3.44537L17.5042 3.28523L17.7283 3.44537C17.7573 3.46612 17.7959 3.43798 17.7853 3.40399L17.7022 3.14142L17.9236 2.97782C17.9523 2.95665 17.9375 2.9111 17.9019 2.91086L17.6265 2.90878L17.5394 2.64751C17.5281 2.61359 17.4802 2.61359 17.469 2.64751Z" fill="#F5F5F5"/>
<path d="M19.4092 2.64751L19.3221 2.90878L19.0467 2.91086C19.011 2.9111 18.9962 2.95665 19.0249 2.97782L19.2464 3.14142L19.1633 3.40399C19.1525 3.43798 19.1912 3.46612 19.2203 3.44537L19.4443 3.28523L19.6684 3.44537C19.6974 3.46612 19.7361 3.43798 19.7254 3.40399L19.6423 3.14142L19.8638 2.97782C19.8925 2.95665 19.8777 2.9111 19.842 2.91086L19.5666 2.90878L19.4795 2.64751C19.4683 2.61359 19.4204 2.61359 19.4092 2.64751Z" fill="#F5F5F5"/>
<path d="M21.3493 2.64751L21.2622 2.90878L20.9868 2.91086C20.9512 2.9111 20.9364 2.95665 20.9651 2.97782L21.1866 3.14142L21.1035 3.40399C21.0928 3.43798 21.1315 3.46612 21.1605 3.44537L21.3846 3.28523L21.6086 3.44537C21.6377 3.46612 21.6763 3.43798 21.6656 3.40399L21.5825 3.14142L21.8041 2.97782C21.8328 2.95665 21.818 2.9111 21.7823 2.91086L21.5069 2.90878L21.4198 2.64751C21.4084 2.61359 21.3606 2.61359 21.3493 2.64751Z" fill="#F5F5F5"/>
<path d="M17.469 4.45846L17.3819 4.71972L17.1065 4.72181C17.0708 4.72205 17.056 4.7676 17.0847 4.78876L17.3063 4.95237L17.2232 5.21494C17.2124 5.24892 17.2511 5.27707 17.2802 5.25632L17.5042 5.09617L17.7283 5.25632C17.7573 5.27707 17.7959 5.24892 17.7853 5.21494L17.7022 4.95237L17.9236 4.78876C17.9523 4.7676 17.9375 4.72205 17.9019 4.72181L17.6265 4.71972L17.5394 4.45846C17.5281 4.42465 17.4802 4.42465 17.469 4.45846Z" fill="#F5F5F5"/>
<path d="M17.469 0.836389L17.3819 1.09765L17.1065 1.09974C17.0708 1.09998 17.056 1.14553 17.0847 1.16669L17.3063 1.3303L17.2232 1.59287C17.2124 1.62685 17.2511 1.655 17.2802 1.63425L17.5042 1.4741L17.7283 1.63425C17.7573 1.655 17.7959 1.62685 17.7853 1.59287L17.7022 1.3303L17.9236 1.16669C17.9523 1.14553 17.9375 1.09998 17.9019 1.09974L17.6265 1.09765L17.5394 0.836389C17.5281 0.802584 17.4802 0.802584 17.469 0.836389Z" fill="#F5F5F5"/>
<path d="M19.4092 4.45846L19.3221 4.71972L19.0467 4.72181C19.011 4.72205 18.9962 4.7676 19.0249 4.78876L19.2464 4.95237L19.1633 5.21494C19.1525 5.24892 19.1912 5.27707 19.2203 5.25632L19.4443 5.09617L19.6684 5.25632C19.6974 5.27707 19.7361 5.24892 19.7254 5.21494L19.6423 4.95237L19.8638 4.78876C19.8925 4.7676 19.8777 4.72205 19.842 4.72181L19.5666 4.71972L19.4795 4.45846C19.4683 4.42465 19.4204 4.42465 19.4092 4.45846Z" fill="#F5F5F5"/>
<path d="M21.3493 4.45846L21.2622 4.71972L20.9868 4.72181C20.9512 4.72205 20.9364 4.7676 20.9651 4.78876L21.1866 4.95237L21.1035 5.21494C21.0928 5.24892 21.1315 5.27707 21.1605 5.25632L21.3846 5.09617L21.6086 5.25632C21.6377 5.27707 21.6763 5.24892 21.6656 5.21494L21.5825 4.95237L21.8041 4.78876C21.8328 4.7676 21.818 4.72205 21.7823 4.72181L21.5069 4.71972L21.4198 4.45846C21.4084 4.42465 21.3606 4.42465 21.3493 4.45846Z" fill="#F5F5F5"/>
<path d="M19.4092 0.836389L19.3221 1.09765L19.0467 1.09974C19.011 1.09998 18.9962 1.14553 19.0249 1.16669L19.2464 1.3303L19.1633 1.59287C19.1525 1.62685 19.1912 1.655 19.2203 1.63425L19.4443 1.4741L19.6684 1.63425C19.6974 1.655 19.7361 1.62685 19.7254 1.59287L19.6423 1.3303L19.8638 1.16669C19.8925 1.14553 19.8777 1.09998 19.842 1.09974L19.5666 1.09765L19.4795 0.836389C19.4683 0.802584 19.4204 0.802584 19.4092 0.836389Z" fill="#F5F5F5"/>
<path d="M21.3493 0.836389L21.2622 1.09765L20.9868 1.09974C20.9512 1.09998 20.9364 1.14553 20.9651 1.16669L21.1866 1.3303L21.1035 1.59287C21.0928 1.62685 21.1315 1.655 21.1605 1.63425L21.3846 1.4741L21.6086 1.63425C21.6377 1.655 21.6763 1.62685 21.6656 1.59287L21.5825 1.3303L21.8041 1.16669C21.8328 1.14553 21.818 1.09998 21.7823 1.09974L21.5069 1.09765L21.4198 0.836389C21.4084 0.802584 21.3606 0.802584 21.3493 0.836389Z" fill="#F5F5F5"/>
</svg>
