<svg width="29" height="20" viewBox="0 0 29 20" fill="none" xmlns="http://www.w3.org/2000/svg">
<path d="M28.0738 2.85766L28.1091 3.08825C27.7679 1.87766 26.8467 0.943545 25.6762 0.603545L25.6515 0.597663C23.4503 1.61283e-05 14.5926 1.62589e-05 14.5926 1.62589e-05C14.5926 1.62589e-05 5.75735 -0.0117486 3.53382 0.597663C2.34088 0.943545 1.41853 1.87766 1.08324 3.06354L1.07735 3.08825C0.255002 7.38354 0.249119 12.5447 1.11382 17.1435L1.07735 16.9106C1.41853 18.1212 2.33971 19.0553 3.51029 19.3953L3.535 19.4012C5.73382 20 14.5938 20 14.5938 20C14.5938 20 23.4279 20 25.6526 19.4012C26.8467 19.0553 27.7691 18.1212 28.1044 16.9353L28.1103 16.9106C28.4844 14.9129 28.6985 12.6141 28.6985 10.2659C28.6985 10.18 28.6985 10.0929 28.6973 10.0059C28.6985 9.92589 28.6985 9.8306 28.6985 9.7353C28.6985 7.38589 28.4844 5.08707 28.0738 2.85766ZM11.7668 14.2953V5.71531L19.1385 10.0118L11.7668 14.2953Z" fill="white"/>
</svg>
